<?xml version="1.0" standalone="no"?>
<!DOCTYPE svg PUBLIC "-//W3C//DTD SVG 20010904//EN"
 "http://www.w3.org/TR/2001/REC-SVG-20010904/DTD/svg10.dtd">
<svg version="1.0" xmlns="http://www.w3.org/2000/svg"
 width="300.000000pt" height="300.000000pt" viewBox="0 0 300.000000 300.000000"
 preserveAspectRatio="xMidYMid meet">
<metadata>
Created by potrace 1.10, written by Peter Selinger 2001-2011
</metadata>
<g transform="translate(0.000000,300.000000) scale(0.100000,-0.100000)"
fill="#000000" stroke="none">
<path d="M2655 2900 c-60 -21 -161 -64 -223 -95 -84 -43 -119 -56 -137 -51
-14 4 -35 1 -47 -5 -12 -7 -59 -11 -110 -10 -70 2 -97 -2 -134 -18 -26 -12
-48 -21 -50 -21 -2 0 -4 12 -4 26 0 23 -3 25 -25 20 -24 -6 -25 -5 -18 39 9
66 -4 55 -18 -15 -11 -55 -15 -63 -66 -101 -70 -54 -103 -94 -103 -125 0 -22
-4 -24 -47 -25 l-48 -1 50 -23 c27 -13 73 -27 102 -31 36 -4 53 -11 53 -20 0
-10 -8 -13 -22 -10 -70 16 -70 16 -94 -59 -12 -38 -37 -105 -56 -147 -19 -43
-50 -130 -68 -194 -34 -118 -34 -118 -51 -93 -10 13 -43 58 -73 99 -63 86
-151 257 -176 345 -17 58 -17 62 2 110 l19 50 -25 -30 c-27 -32 -31 -30 -17 8
5 13 16 47 25 76 l15 53 -39 -41 c-22 -22 -42 -52 -46 -66 -3 -14 -10 -27 -14
-30 -4 -3 -28 25 -54 62 -58 85 -61 60 -3 -29 48 -73 53 -116 14 -133 -15 -7
-24 -26 -34 -70 -12 -53 -180 -413 -193 -414 -3 -1 -12 16 -22 37 -88 200
-198 426 -205 422 -4 -3 -7 -39 -6 -80 l3 -75 -30 84 c-16 46 -33 87 -36 90
-15 13 8 -120 36 -214 34 -116 32 -105 22 -105 -5 0 -24 35 -42 78 -70 161
-122 267 -127 256 -4 -11 46 -137 142 -359 24 -55 58 -141 75 -190 35 -100
118 -281 125 -273 3 2 0 19 -5 38 -8 30 -4 45 35 128 25 52 48 93 51 90 3 -3
-2 -23 -10 -43 -23 -54 -19 -57 10 -5 l25 45 -5 -40 c-3 -22 -8 -56 -12 -75
-13 -69 16 -15 89 167 40 99 86 224 102 277 17 53 32 96 35 96 4 0 12 -17 19
-37 23 -62 105 -209 109 -192 1 8 -6 35 -17 59 -11 25 -18 47 -15 50 10 9 44
-44 91 -140 25 -52 54 -107 64 -122 31 -43 22 -42 -32 4 -28 23 -62 52 -76 62
-56 42 -4 -19 101 -121 100 -97 106 -105 106 -143 0 -72 17 -42 29 53 17 122
40 225 53 234 8 4 9 0 4 -13 -15 -37 -19 -153 -6 -169 18 -21 28 -11 62 64 17
36 32 61 35 54 2 -6 -6 -49 -18 -94 -15 -58 -19 -84 -11 -87 7 -2 1 -31 -18
-85 -32 -87 -36 -117 -19 -134 9 -9 8 -20 0 -45 -8 -21 -9 -62 -5 -115 5 -55
3 -83 -4 -83 -5 0 -25 26 -42 58 -49 86 -129 200 -161 226 -15 13 -36 41 -47
62 -11 21 -43 64 -70 94 -27 30 -59 75 -72 99 -36 73 -93 152 -101 144 -11
-12 -102 -303 -138 -443 -31 -117 -84 -250 -102 -250 -11 0 -77 124 -119 225
-21 50 -94 216 -163 370 -69 154 -166 377 -217 495 -52 122 -89 198 -85 175
10 -62 74 -254 106 -317 31 -60 27 -81 -4 -27 -37 66 -26 16 26 -113 30 -74
57 -147 61 -162 12 -47 -9 -27 -43 42 -53 109 -142 264 -148 258 -3 -3 13 -42
35 -88 22 -46 70 -153 107 -238 36 -85 149 -319 251 -519 122 -241 184 -373
182 -389 -2 -18 -12 -28 -38 -37 -53 -19 -405 -195 -402 -201 2 -3 -25 -24
-60 -46 -35 -22 -67 -45 -73 -51 -9 -9 24 8 243 125 39 22 72 36 72 31 0 -8
-24 -25 -152 -106 -32 -21 -58 -39 -58 -41 0 -3 51 24 113 59 63 35 156 84
208 110 l94 46 -65 -60 c-48 -43 -61 -61 -50 -65 14 -6 229 101 360 179 30 18
102 49 160 68 302 101 385 137 319 137 -17 0 -20 5 -17 25 3 14 1 25 -4 25 -5
0 -134 -42 -286 -92 -152 -51 -282 -94 -289 -96 -8 -2 -9 6 -3 30 4 18 11 71
15 118 8 97 42 214 120 405 29 72 63 167 76 213 l22 82 35 -62 c19 -35 41 -81
49 -103 27 -78 143 -268 223 -365 21 -25 39 -61 43 -81 3 -19 19 -56 36 -81
20 -30 31 -58 31 -81 0 -20 5 -39 10 -42 6 -3 10 3 10 14 0 25 8 26 32 4 18
-16 19 -16 8 12 -6 16 -13 47 -15 68 l-4 39 23 -21 c19 -18 34 -21 102 -21 71
1 190 17 252 36 43 12 21 -11 -61 -66 -79 -53 -108 -90 -71 -90 16 0 16 -1 1
-18 -24 -26 -21 -32 14 -32 56 0 226 108 335 212 38 36 43 38 85 33 32 -5 40
-4 29 4 -8 6 -25 11 -37 11 -30 0 -29 6 7 47 35 40 38 65 9 94 -20 20 -28 21
-118 15 -121 -8 -234 -33 -384 -85 -140 -48 -145 -51 -123 -63 15 -8 15 -11 0
-33 l-16 -25 58 21 c149 51 265 78 371 84 l108 6 -24 -19 c-18 -14 -40 -20
-80 -20 -82 -1 -276 -37 -360 -67 -40 -15 -75 -24 -78 -21 -9 9 -5 117 7 171
6 28 26 95 44 150 31 90 86 311 86 346 0 16 101 100 183 152 52 33 64 37 130
38 65 1 69 2 37 11 -56 16 -55 25 4 31 31 3 79 17 108 31 46 21 49 24 19 19
-24 -4 -32 -3 -27 5 4 8 0 12 -11 12 -10 1 5 13 33 28 57 30 146 93 140 99 -2
2 -47 -19 -99 -47 -141 -75 -150 -77 -195 -32 -41 41 -112 87 -112 72 0 -5 19
-22 43 -38 53 -37 81 -68 73 -81 -9 -14 -96 -29 -199 -34 -84 -5 -87 -4 -81
15 15 49 44 207 44 245 0 52 -7 47 235 138 201 75 268 90 435 100 63 4 122 12
130 17 10 6 -23 7 -92 4 -60 -3 -108 -1 -108 3 0 14 34 39 80 60 25 11 37 21
27 21 -14 0 -16 4 -7 19 24 46 -11 66 -95 56 -74 -10 -71 6 8 46 88 45 216
119 223 130 3 5 4 9 2 8 -2 0 -52 -18 -113 -39z m-198 -157 c2 -6 -15 -25 -39
-41 -66 -45 -84 -68 -68 -87 8 -9 9 -19 4 -24 -21 -19 -268 -101 -274 -91 -4
6 -31 0 -73 -17 -67 -26 -84 -26 -74 0 3 9 28 17 67 21 73 8 78 29 7 34 -48 3
-110 -21 -136 -52 -11 -12 -17 -14 -27 -5 -8 6 -14 15 -14 18 0 11 117 91 133
91 8 0 43 15 78 34 85 44 208 86 256 86 21 0 61 11 88 25 52 25 66 27 72 8z
m-287 -33 c-8 -5 -27 -10 -42 -10 -14 0 -61 -18 -103 -41 -42 -22 -79 -39 -81
-37 -10 11 11 47 38 62 43 26 226 51 188 26z m421 0 c5 0 9 -4 9 -9 0 -17
-225 -90 -237 -77 -6 5 128 75 167 87 14 4 31 5 38 3 8 -2 18 -4 23 -4z m-721
-64 c0 -8 -13 -24 -29 -35 -16 -12 -31 -31 -35 -44 -3 -13 -17 -29 -31 -35
-43 -20 -31 17 26 76 52 53 69 63 69 38z m45 -23 c-3 -15 -12 -31 -18 -35 -20
-12 -37 -9 -37 7 0 18 16 20 23 3 3 -7 8 2 12 20 4 17 12 32 17 32 6 0 7 -11
3 -27z m5 -203 c0 -11 -7 -20 -15 -20 -15 0 -21 21 -8 33 12 13 23 7 23 -13z
m-99 -39 c-11 -20 -59 -51 -81 -51 -15 0 -12 32 5 57 15 22 62 35 78 22 5 -4
4 -16 -2 -28z m-537 -120 c24 -67 19 -70 -30 -16 -42 46 -44 53 -38 90 11 67
26 74 40 18 7 -26 20 -68 28 -92z m621 32 c-20 -123 -45 -237 -55 -247 -4 -4
-12 -7 -17 -5 -11 5 43 308 58 326 22 26 26 2 14 -74z m-115 -34 c-6 -35 -23
-105 -37 -156 -21 -74 -32 -96 -56 -113 -18 -14 -32 -19 -38 -13 -12 12 3 107
34 223 22 79 27 87 63 107 21 12 40 20 42 18 2 -1 -2 -32 -8 -66z m-913 -252
c23 -53 43 -106 43 -117 0 -24 -51 -150 -61 -150 -6 0 -39 72 -39 86 0 3 9 2
20 -1 18 -6 19 -4 10 19 -5 14 -16 36 -24 48 -7 13 -21 46 -30 73 -19 60 -66
289 -65 319 0 23 77 -122 146 -277z m174 6 c-46 -124 -49 -131 -60 -138 -16
-9 -26 25 -13 44 7 9 17 27 23 41 14 34 69 130 74 130 3 0 -8 -35 -24 -77z
m-516 -23 c6 -22 6 -23 -8 -10 -9 8 -19 29 -22 45 -7 28 -6 29 8 10 8 -11 18
-31 22 -45z m1313 20 c11 0 24 5 27 10 3 6 11 10 17 10 6 0 -6 -15 -27 -34
-36 -30 -40 -39 -46 -97 -15 -126 -100 -444 -127 -471 -6 -6 -6 8 -1 36 5 30
5 55 -2 70 -9 19 -6 40 15 103 14 43 26 94 26 112 0 19 5 61 12 94 11 51 10
63 -4 87 -14 24 -14 31 -3 40 7 6 21 27 30 46 l17 36 22 -21 c12 -12 32 -21
44 -21z m-368 -67 c0 -24 -16 -13 -33 22 -9 20 -17 39 -17 43 1 12 50 -52 50
-65z m537 44 c-11 -7 -51 -36 -90 -64 -39 -29 -72 -51 -74 -49 -4 4 13 86 19
90 7 6 124 34 143 34 19 1 19 0 2 -11z m-356 -88 c-22 -40 -35 -36 -27 9 3 20
6 44 6 52 0 10 6 7 19 -9 17 -22 17 -26 2 -52z m-110 -69 l-6 -65 -18 34 c-15
26 -17 44 -12 83 7 48 8 50 24 32 15 -16 17 -31 12 -84z m-950 -7 c95 -206
179 -403 185 -431 3 -17 1 -32 -5 -36 -6 -4 -54 81 -124 221 -147 295 -144
288 -122 313 10 11 20 20 22 20 2 0 22 -39 44 -87z m559 -6 c-10 -23 -29 -76
-42 -117 -12 -41 -24 -67 -26 -57 -2 9 11 61 29 115 37 113 38 114 49 107 5
-3 1 -25 -10 -48z m313 -359 c24 -35 50 -74 57 -88 12 -23 12 -24 -3 -11 -16
13 -107 145 -107 156 0 14 12 0 53 -57z m-608 -175 c19 -42 23 -64 19 -94 -8
-49 -21 -50 -30 -1 -4 20 -17 58 -30 84 -24 48 -23 81 2 71 7 -3 25 -30 39
-60z m1481 54 c4 -4 5 -10 1 -13 -9 -10 -172 -25 -225 -22 l-47 3 75 22 c72
22 179 27 196 10z m-15 -65 c-12 -23 -41 -48 -41 -35 0 5 7 19 16 31 19 27 39
30 25 4z m-703 -18 c34 -16 47 -52 15 -39 -10 4 -26 10 -35 12 -10 3 -18 14
-18 24 0 23 -1 23 38 3z m-662 -69 c-4 -14 -13 -25 -21 -25 -15 0 -11 23 8 48
14 18 20 7 13 -23z m674 6 c17 -33 12 -46 -10 -26 -21 19 -27 45 -10 45 5 0
14 -9 20 -19z m490 14 c0 -10 -140 -45 -220 -55 -185 -22 -150 -1 55 34 153
27 165 28 165 21z m96 -40 c-31 -28 -48 -35 -80 -35 l-41 1 70 34 c89 43 99
43 51 0z m-86 10 c0 -2 -13 -11 -30 -20 -31 -16 -43 -3 -12 14 18 11 42 14 42
6z m-1180 -62 c0 -16 -3 -45 -7 -66 l-6 -39 -13 39 c-22 62 -18 93 13 93 8 0
13 -11 13 -27z m480 3 c-28 -15 -281 -110 -320 -120 -56 -14 62 40 185 85 127
47 186 62 135 35z m700 -23 c0 -8 -77 -59 -162 -108 -70 -39 -63 -10 14 59 55
50 66 56 105 56 24 0 43 -3 43 -7z m-165 -38 c-35 -30 -65 -44 -65 -31 0 8 84
65 95 65 6 1 -8 -15 -30 -34z m-895 -49 c0 -3 -25 -19 -55 -36 -30 -17 -55
-38 -55 -46 0 -17 5 -17 33 -3 15 7 12 2 -8 -14 l-30 -25 -7 31 c-3 17 -3 38
2 46 10 18 120 60 120 47z m-182 -82 c-2 -10 -37 -28 -97 -50 -52 -18 -97 -32
-99 -30 -4 5 178 96 191 96 5 0 7 -7 5 -16z m5 -63 c3 -14 -9 -25 -62 -50
l-66 -33 50 51 c53 55 70 62 78 32z"/>
<path d="M760 580 c0 -5 11 -10 25 -10 27 0 30 -12 19 -82 -4 -25 -13 -40 -26
-44 -11 -3 -17 -8 -14 -12 10 -9 96 -10 102 -1 3 5 -6 9 -20 9 -25 0 -26 2
-26 69 0 63 -2 69 -22 75 -32 8 -38 7 -38 -4z"/>
<path d="M950 582 c0 -6 7 -12 15 -16 26 -9 18 -34 -9 -29 -36 7 -63 -36 -46
-76 15 -36 23 -40 80 -32 39 6 42 8 26 17 -15 9 -19 24 -20 75 -2 58 -4 64
-24 67 -12 2 -22 -1 -22 -6z m28 -88 c2 -11 -4 -27 -13 -34 -22 -19 -50 9 -40
39 9 29 49 25 53 -5z"/>
<path d="M1840 570 c0 -13 -7 -20 -20 -20 -11 0 -20 -4 -20 -10 0 -5 9 -10 19
-10 17 0 20 -8 23 -47 2 -35 8 -49 19 -51 20 -4 49 23 49 45 0 14 -2 14 -18 0
-25 -23 -28 -22 -30 18 -2 31 0 35 23 35 14 0 25 5 25 10 0 6 -11 10 -25 10
-18 0 -25 5 -25 20 0 11 -4 20 -10 20 -5 0 -10 -9 -10 -20z"/>
<path d="M1970 580 c0 -5 11 -10 25 -10 27 0 30 -12 19 -82 -4 -25 -13 -40
-26 -44 -29 -9 -13 -18 35 -20 50 -1 72 8 37 16 -23 5 -25 11 -28 72 -3 58 -5
67 -25 72 -31 8 -37 7 -37 -4z"/>
<path d="M294 564 c9 -8 16 -28 16 -43 0 -70 29 -130 31 -63 0 15 4 36 9 47 8
19 9 18 11 -5 1 -14 2 -34 3 -44 2 -47 23 -20 37 49 10 52 12 75 4 75 -6 0
-12 -17 -13 -37 -4 -46 -9 -53 -20 -23 l-9 23 -21 -23 -22 -24 -2 30 c0 16 -1
35 -1 42 1 6 -8 12 -19 12 -18 0 -18 -1 -4 -16z"/>
<path d="M1197 572 c11 -7 21 -46 27 -107 5 -46 26 -43 26 4 0 22 5 43 10 46
6 4 10 -10 10 -34 0 -39 16 -65 24 -39 20 67 31 138 21 138 -6 0 -12 -15 -13
-32 -3 -35 -22 -65 -22 -35 0 23 -40 23 -41 0 0 -10 -5 -4 -10 12 -5 17 -7 36
-4 43 3 7 -4 12 -18 12 -13 0 -17 -3 -10 -8z"/>
<path d="M483 535 c-32 -23 -38 -63 -13 -90 22 -23 50 -24 78 -2 18 14 15 71
-6 90 -23 21 -32 21 -59 2z m47 -20 c19 -23 4 -67 -22 -63 -28 4 -42 43 -22
63 19 19 28 19 44 0z"/>
<path d="M605 540 c-6 -10 -4 -12 18 -14 6 0 13 -16 15 -34 3 -27 -1 -35 -18
-39 -21 -6 -23 -29 -2 -27 7 1 26 2 42 3 29 1 44 21 16 21 -21 0 -25 22 -9 53
13 26 33 37 33 17 0 -5 5 -10 11 -10 6 0 9 8 7 18 -4 19 -38 18 -50 -1 -6 -9
-10 -9 -15 -1 -12 16 -42 24 -48 14z"/>
<path d="M1363 536 c2 -6 10 -11 17 -11 23 0 20 -67 -2 -73 -17 -4 -22 -24 -5
-23 4 1 23 1 42 1 19 0 35 5 35 10 0 6 -9 10 -20 10 -14 0 -20 7 -20 23 0 28
40 70 47 50 6 -18 23 -16 23 2 0 18 -41 20 -58 3 -8 -8 -12 -8 -12 -1 0 6 -11
13 -25 16 -16 3 -24 0 -22 -7z"/>
<path d="M1677 543 c-17 -16 -6 -43 21 -49 55 -12 57 -13 39 -31 -15 -15 -18
-15 -41 1 -23 14 -26 14 -26 1 0 -8 -1 -18 -2 -21 -2 -4 12 -8 30 -9 43 -4 82
26 64 48 -7 8 -28 18 -47 21 -24 5 -32 11 -28 21 7 20 32 19 55 -2 17 -15 18
-15 18 3 0 15 -8 20 -38 22 -21 1 -41 -1 -45 -5z"/>
<path d="M2130 540 c0 -5 9 -10 20 -10 14 0 20 -7 20 -24 0 -37 -10 -56 -31
-56 -10 0 -19 -4 -19 -10 0 -5 25 -10 55 -10 54 0 77 15 33 22 -23 3 -25 8
-27 71 -1 22 -6 27 -26 27 -14 0 -25 -4 -25 -10z"/>
<path d="M2260 540 c0 -5 5 -12 10 -15 17 -10 11 -67 -7 -81 -16 -12 -14 -13
20 -14 20 0 37 5 37 10 0 6 -4 10 -10 10 -5 0 -10 8 -10 18 0 22 38 65 51 57
16 -10 10 -67 -8 -81 -16 -12 -14 -13 16 -14 27 0 31 3 22 13 -6 8 -10 30 -9
51 2 45 -15 65 -40 50 -10 -6 -29 -8 -44 -3 -16 4 -28 3 -28 -1z"/>
<path d="M2447 531 c-8 -9 -20 -38 -26 -66 -12 -47 -11 -51 9 -67 25 -21 38
-22 74 -8 35 13 36 57 2 66 -13 3 -33 4 -44 2 -12 -2 -21 2 -21 7 -1 6 11 10
26 10 18 0 31 8 39 22 6 13 14 20 18 15 5 -4 7 1 5 12 -5 25 -62 30 -82 7z
m41 -23 c-2 -13 -10 -23 -18 -23 -8 0 -16 10 -18 23 -3 17 2 22 18 22 16 0 21
-5 18 -22z m19 -84 c5 -16 -36 -25 -59 -13 -10 6 -16 15 -12 20 8 13 66 7 71
-7z"/>
<path d="M1524 516 c-13 -22 -14 -29 -2 -53 8 -16 23 -29 36 -31 24 -4 52 13
52 31 0 5 -9 2 -19 -7 -15 -14 -24 -15 -40 -6 -33 17 -25 30 19 30 32 0 40 4
40 18 0 45 -59 57 -86 18z m56 -1 c0 -15 -26 -32 -36 -23 -2 3 -2 13 2 22 8
20 34 21 34 1z"/>
<path d="M675 250 c-3 -5 1 -10 9 -10 10 0 16 -9 17 -22 1 -13 3 -36 5 -53 2
-22 -3 -35 -19 -47 -22 -17 -22 -18 21 -18 23 0 42 5 42 10 0 6 -7 10 -15 10
-9 0 -15 9 -15 25 0 29 26 35 33 8 3 -10 5 2 6 27 0 35 -2 41 -10 28 -14 -25
-31 -22 -27 5 2 16 10 22 28 22 18 0 26 -6 28 -22 2 -13 7 -23 11 -23 5 0 6
15 2 33 -6 31 -9 32 -58 35 -28 2 -54 -2 -58 -8z"/>
<path d="M1024 249 c-5 -9 -3 -11 18 -13 7 0 14 -9 16 -18 3 -15 -2 -17 -26
-12 -34 7 -52 -14 -52 -59 0 -38 28 -57 78 -50 39 5 60 23 27 23 -11 0 -15 16
-17 67 -2 54 -6 67 -20 69 -10 1 -20 -2 -24 -7z m21 -94 c0 -23 -4 -30 -20
-30 -21 0 -31 25 -21 51 11 28 41 12 41 -21z"/>
<path d="M1610 241 c0 -12 -6 -21 -15 -21 -8 0 -15 -4 -15 -10 0 -5 9 -10 21
-10 18 0 20 -4 14 -30 -4 -16 -4 -39 0 -50 12 -37 65 -18 65 24 0 18 -1 18
-20 1 -18 -17 -19 -16 -25 8 -8 32 0 47 26 47 10 0 19 5 19 10 0 6 -11 10 -25
10 -19 0 -25 5 -23 16 2 10 -3 19 -9 21 -8 3 -13 -4 -13 -16z"/>
<path d="M2190 245 c-16 -19 -6 -45 19 -45 23 0 35 28 20 46 -15 18 -24 18
-39 -1z"/>
<path d="M1444 207 c-3 -8 -4 -21 -3 -28 1 -8 -1 -22 -5 -31 -16 -35 0 -47 58
-46 36 1 57 6 60 15 3 7 -1 13 -9 13 -9 0 -15 14 -17 43 -3 41 -4 42 -41 45
-25 2 -39 -1 -43 -11z m66 -16 c0 -8 -23 -21 -39 -21 -4 0 -8 7 -8 15 0 9 10
15 24 15 13 0 23 -4 23 -9z m0 -50 c0 -10 -24 -21 -46 -21 -8 0 -14 7 -14 15
0 10 10 15 30 15 17 0 30 -4 30 -9z"/>
<path d="M1750 210 c0 -5 9 -10 20 -10 17 0 20 -7 20 -40 0 -36 -2 -40 -25
-40 -14 0 -25 -4 -25 -10 0 -5 25 -10 55 -10 30 0 55 5 55 10 0 6 -9 10 -20
10 -21 0 -23 6 -20 56 1 25 -3 33 -22 38 -32 8 -38 8 -38 -4z"/>
<path d="M1911 196 c-27 -29 -27 -57 2 -83 37 -34 87 -13 87 36 0 58 -52 86
-89 47z m64 -26 c8 -25 -4 -50 -24 -50 -38 0 -56 51 -24 68 21 12 41 5 48 -18z"/>
<path d="M2030 210 c0 -6 7 -13 15 -16 21 -8 19 -64 -2 -80 -16 -12 -14 -13
16 -14 25 0 31 3 24 13 -5 6 -8 18 -7 25 1 6 2 16 3 21 2 16 32 41 42 36 14
-9 11 -83 -3 -88 -7 -3 -2 -6 12 -6 24 -1 25 1 22 49 -4 56 -21 77 -50 61 -11
-6 -22 -7 -26 -4 -11 12 -46 13 -46 3z"/>
<path d="M843 184 c-15 -24 -15 -29 -2 -53 17 -30 60 -39 79 -17 14 18 0 22
-17 5 -8 -8 -17 -8 -32 0 -33 18 -25 31 19 31 32 0 40 4 40 18 0 46 -60 57
-87 16z m55 -2 c2 -7 -4 -15 -13 -18 -20 -8 -27 -1 -19 20 7 18 25 17 32 -2z"/>
<path d="M1144 186 c-13 -22 -14 -29 -2 -53 14 -30 61 -44 81 -24 16 16 0 26
-17 12 -11 -9 -20 -10 -35 -1 -33 17 -25 30 19 30 32 0 40 4 40 18 0 45 -59
57 -86 18z m56 -6 c0 -13 -7 -20 -20 -20 -22 0 -23 1 -14 24 9 23 34 20 34 -4z"/>
<path d="M1284 203 c4 -5 13 -8 19 -8 7 0 13 -17 15 -37 3 -33 0 -38 -18 -38
-13 0 -20 -5 -17 -12 2 -7 9 -13 15 -12 7 1 26 2 42 3 29 1 44 21 16 21 -19 0
-25 20 -13 47 13 29 34 36 42 15 5 -14 7 -14 15 -2 19 31 -21 42 -52 13 -17
-15 -18 -15 -18 0 0 12 -9 17 -27 17 -14 0 -23 -3 -19 -7z"/>
</g>
</svg>
